HIERARCHY
ROOT Hips
{
	OFFSET 173.408295 91.952423 -518.280273
	CHANNELS 6 Xposition Yposition Zposition Zrotation Yrotation Xrotation 
	JOINT LeftUpLeg
	{
		OFFSET 0.103459 1.857827 10.548504
		CHANNELS 3 Zrotation Yrotation Xrotation
		JOINT LeftLeg
		{
			OFFSET 43.500008 0.000000 0.000004
			CHANNELS 3 Zrotation Yrotation Xrotation
			JOINT LeftFoot
			{
				OFFSET 42.372192 0.000011 0.000000
				CHANNELS 3 Zrotation Yrotation Xrotation
				JOINT LeftToe
				{
					OFFSET 17.299973 -0.000013 -0.000010
					CHANNELS 3 Zrotation Yrotation Xrotation
					End Site
					{
						OFFSET 0.000000 0.000000 0.000000
					}
				}
			}
		}
	}
	JOINT RightUpLeg
	{
		OFFSET 0.103454 1.857830 -10.548500
		CHANNELS 3 Zrotation Yrotation Xrotation
		JOINT RightLeg
		{
			OFFSET 43.500038 -0.000038 0.000004
			CHANNELS 3 Zrotation Yrotation Xrotation
			JOINT RightFoot
			{
				OFFSET 42.372253 0.000019 0.000024
				CHANNELS 3 Zrotation Yrotation Xrotation
				JOINT RightToe
				{
					OFFSET 17.299988 -0.000007 0.000004
					CHANNELS 3 Zrotation Yrotation Xrotation
					End Site
					{
						OFFSET 0.000000 0.000000 0.000000
					}
				}
			}
		}
	}
	JOINT Spine
	{
		OFFSET 6.901963 -2.603744 0.000004
		CHANNELS 3 Zrotation Yrotation Xrotation
		JOINT Spine1
		{
			OFFSET 12.588104 0.000008 -0.000010
			CHANNELS 3 Zrotation Yrotation Xrotation
			JOINT Spine2
			{
				OFFSET 12.343202 -0.000005 0.000010
				CHANNELS 3 Zrotation Yrotation Xrotation
				JOINT Neck
				{
					OFFSET 25.832897 0.000000 0.000001
					CHANNELS 3 Zrotation Yrotation Xrotation
					JOINT Head
					{
						OFFSET 11.766611 -0.000006 -0.000000
						CHANNELS 3 Zrotation Yrotation Xrotation
						End Site
						{
							OFFSET 0.000000 0.000000 0.000000
						}
					}
				}
				JOINT LeftShoulder
				{
					OFFSET 19.745899 -1.480366 6.000108
					CHANNELS 3 Zrotation Yrotation Xrotation
					JOINT LeftArm
					{
						OFFSET 11.284111 -0.000018 -0.000015
						CHANNELS 3 Zrotation Yrotation Xrotation
						JOINT LeftForeArm
						{
							OFFSET 33.000050 -0.000005 0.000028
							CHANNELS 3 Zrotation Yrotation Xrotation
							JOINT LeftHand
							{
								OFFSET 25.200012 0.000000 0.000002
								CHANNELS 3 Zrotation Yrotation Xrotation
								End Site
								{
									OFFSET 0.000000 0.000000 0.000000
								}
							}
						}
					}
				}
				JOINT RightShoulder
				{
					OFFSET 19.746111 -1.480335 -6.000074
					CHANNELS 3 Zrotation Yrotation Xrotation
					JOINT RightArm
					{
						OFFSET 11.284151 0.000036 0.000001
						CHANNELS 3 Zrotation Yrotation Xrotation
						JOINT RightForeArm
						{
							OFFSET 33.000092 -0.000035 0.000022
							CHANNELS 3 Zrotation Yrotation Xrotation
							JOINT RightHand
							{
								OFFSET 25.199768 0.000178 0.000417
								CHANNELS 3 Zrotation Yrotation Xrotation
								End Site
								{
									OFFSET 0.000000 0.000000 0.000000
								}
							}
						}
					}
				}
			}
		}
	}
}
MOTION
Frames: 7
Frame Time: 0.033333
174.931900 91.452332 -33.171150 91.339430 1.104920 84.741720 172.188523 4.212905 179.060909 -20.691693 -1.825361 4.445338 76.478216 -1.635744 4.980208 21.454557 0.003097 0.000001 174.893359 7.526590 -175.267941 -47.388884 1.573425 -3.530137 69.477852 6.652365 11.463013 21.454565 -0.003109 -0.000018 5.589812 -1.256959 1.308024 1.138315 -2.525941 2.605040 0.820260 -2.510040 2.620238 21.399891 17.905046 26.146548 -0.716968 -45.302872 35.984671 179.545306 -76.738500 -1.041722 -14.085023 58.291177 34.339876 -27.818568 -8.600734 0.775047 0.534204 -11.811769 14.698138 -160.260690 76.810914 21.612341 -7.001375 -62.640976 -37.504808 -34.977672 14.376336 -1.321326 1.830365 7.658922 -11.143069 
174.851593 91.426559 -33.216839 91.396011 1.048826 84.657811 172.015691 4.171592 178.857219 -20.877797 -1.802781 4.534648 76.563238 -1.729433 4.880066 21.454555 0.003103 0.000002 174.462265 7.505288 -175.340710 -47.897832 1.491979 -3.278204 72.111785 6.164511 11.478180 21.454563 -0.003108 -0.000020 5.622060 -1.280176 1.276827 1.203049 -2.572799 2.541717 0.884926 -2.557265 2.557193 21.433620 17.958172 26.254795 -0.980032 -45.394793 36.227508 179.281305 -76.743159 -0.772409 -14.934888 58.120723 33.796077 -28.261569 -8.718364 0.790496 0.485739 -11.843783 14.662594 -160.278408 76.800887 21.594429 -6.853976 -62.692175 -37.538764 -35.418332 14.518612 -1.340708 1.710691 7.747520 -11.156632 
174.745605 91.518463 -33.214489 91.192478 0.961089 84.619733 172.056932 3.869209 178.755572 -20.685102 -1.779226 4.624470 76.483523 -1.819179 4.774739 21.454553 0.003093 -0.000000 174.333311 7.228108 -175.343865 -47.202491 1.498473 -2.724220 74.427888 5.322546 10.951154 21.454555 -0.003107 -0.000018 5.636547 -1.246198 1.257978 1.233170 -2.504974 2.503984 0.915091 -2.489683 2.519060 21.512311 18.001985 26.348401 -1.180561 -45.449629 36.414173 179.186994 -76.737312 -0.676083 -15.842086 57.985499 33.208038 -28.723975 -8.849725 0.807337 0.455468 -11.923892 14.583122 -160.344114 76.792124 21.527493 -6.695999 -62.739078 -37.672984 -35.723737 14.595802 -1.352836 1.597288 7.738856 -11.182516 
174.619095 91.596863 -33.217690 91.050144 0.837278 84.588129 172.062068 3.613106 178.721530 -20.473458 -1.779159 4.675614 76.392599 -1.880944 4.670000 21.454553 0.003088 0.000000 174.392160 6.988916 -175.325847 -45.325719 1.510502 -1.729528 76.626205 4.041945 9.878997 21.454555 -0.003105 -0.000017 5.631159 -1.218484 1.246043 1.223234 -2.449331 2.480474 0.905155 -2.434181 2.495208 21.605447 18.027349 26.412285 -1.281589 -45.467364 36.516076 179.277917 -76.706207 -0.768255 -16.735169 57.858457 32.615342 -29.187174 -8.967340 0.823435 0.432338 -12.018549 14.514721 -160.321397 76.804043 21.550490 -6.570652 -62.808425 -37.788172 -35.852459 14.609998 -1.356782 1.524553 7.592970 -11.312129 
174.466904 91.725960 -33.209999 90.816476 0.689780 84.643604 172.152773 3.246992 178.807481 -20.066483 -1.820114 4.723851 76.201005 -1.933442 4.577930 21.454553 0.003096 0.000002 174.595249 6.780702 -175.281164 -42.516708 1.563325 -0.101030 78.429020 2.580516 9.517776 21.454560 -0.003106 -0.000014 5.616915 -1.166553 1.228649 1.196183 -2.345017 2.446425 0.878121 -2.330074 2.460546 21.651889 18.057741 26.435120 -1.313701 -45.472965 36.548506 179.320989 -76.673286 -0.811599 -17.619977 57.752733 32.012479 -29.613795 -9.057534 0.837214 0.388412 -12.126324 14.496556 -160.203002 76.793934 21.671410 -6.512596 -62.880299 -37.797912 -35.845946 14.600175 -1.358479 1.478653 7.395002 -11.538897 
174.295395 91.894058 -33.207310 90.523209 0.533843 84.766295 172.314048 2.796403 178.952691 -19.495890 -1.903694 4.787812 75.916480 -1.987296 4.508556 21.454551 0.003102 0.000002 174.900996 6.534001 -175.264061 -38.953327 1.794485 1.300936 79.781787 1.187881 8.539465 21.454557 -0.003119 -0.000020 5.604890 -1.096081 1.206947 1.174026 -2.203614 2.403821 0.855994 -2.188936 2.417084 21.636747 18.062051 26.433940 -1.368132 -45.472978 36.574399 179.249832 -76.619880 -0.738025 -18.515878 57.655129 31.393025 -29.959843 -9.134200 0.848724 0.329980 -12.218953 14.503560 -160.164999 76.769441 21.710584 -6.525859 -62.918501 -37.715058 -35.748196 14.598407 -1.359663 1.473596 7.260987 -11.695058 
174.098404 91.990479 -33.254959 90.417423 0.400065 84.848681 172.355971 2.509096 179.033615 -19.114155 -1.984982 4.845935 75.714389 -2.041482 4.435404 21.454550 0.003088 -0.000000 175.051396 6.472305 -175.628028 -35.388737 2.156812 2.079670 81.183594 0.211359 7.284631 21.454560 -0.003099 -0.000017 5.604521 -1.059819 1.195775 1.174254 -2.131007 2.381802 0.856229 -2.116463 2.394636 21.596145 18.075419 26.439568 -1.467831 -45.496576 36.636120 179.090593 -76.562282 -0.574365 -19.446604 57.568133 30.724240 -30.200525 -9.203690 0.857831 0.294102 -12.262318 14.480276 -160.280511 76.732490 21.593191 -6.630871 -62.890715 -37.574875 -35.576785 14.609150 -1.360861 1.496297 7.268970 -11.661214 
